HIERARCHY
ROOT Hips
{
	OFFSET 0.00000 0.00000 0.00000
	CHANNELS 6 Xposition Yposition Zposition Zrotation Yrotation Xrotation 
	JOINT LHipJoint
	{
		OFFSET 0 0 0
		CHANNELS 3 Zrotation Yrotation Xrotation
		JOINT LeftUpLeg
		{
			OFFSET 1.84395 -1.68683 0.74144
			CHANNELS 3 Zrotation Yrotation Xrotation
			JOINT LeftLeg
			{
				OFFSET 2.27037 -6.23779 0.00000
				CHANNELS 3 Zrotation Yrotation Xrotation
				JOINT LeftFoot
				{
					OFFSET 2.56918 -7.05877 0.00000
					CHANNELS 3 Zrotation Yrotation Xrotation
					JOINT LeftToeBase
					{
						OFFSET 0.22276 -0.61202 1.71784
						CHANNELS 3 Zrotation Yrotation Xrotation
						End Site
						{
							OFFSET 0.00000 -0.00000 0.91613
						}
					}
				}
			}
		}
	}
	JOINT RHipJoint
	{
		OFFSET 0 0 0
		CHANNELS 3 Zrotation Yrotation Xrotation
		JOINT RightUpLeg
		{
			OFFSET -1.76833 -1.68684 0.74144
			CHANNELS 3 Zrotation Yrotation Xrotation
			JOINT RightLeg
			{
				OFFSET -2.49360 -6.85110 0.00000
				CHANNELS 3 Zrotation Yrotation Xrotation
				JOINT RightFoot
				{
					OFFSET -2.55538 -7.02085 0.00000
					CHANNELS 3 Zrotation Yrotation Xrotation
					JOINT RightToeBase
					{
						OFFSET -0.21516 -0.59115 1.68050
						CHANNELS 3 Zrotation Yrotation Xrotation
						End Site
						{
							OFFSET -0.00000 -0.00000 0.89604
						}
					}
				}
			}
		}
	}
	JOINT LowerBack
	{
		OFFSET 0 0 0
		CHANNELS 3 Zrotation Yrotation Xrotation
		JOINT Spine
		{
			OFFSET 0.06382 1.72312 -0.19613
			CHANNELS 3 Zrotation Yrotation Xrotation
			JOINT Spine1
			{
				OFFSET -0.00055 1.73507 0.23859
				CHANNELS 3 Zrotation Yrotation Xrotation
				JOINT Neck
				{
					OFFSET 0 0 0
					CHANNELS 3 Zrotation Yrotation Xrotation
					JOINT Neck1
					{
						OFFSET 0.03638 1.65562 0.09633
						CHANNELS 3 Zrotation Yrotation Xrotation
						JOINT Head
						{
							OFFSET 0.06388 1.62807 -0.32386
							CHANNELS 3 Zrotation Yrotation Xrotation
							End Site
							{
								OFFSET 0.00995 1.67644 -0.12021
							}
						}
					}
				}
				JOINT LeftShoulder
				{
					OFFSET 0 0 0
					CHANNELS 3 Zrotation Yrotation Xrotation
					JOINT LeftArm
					{
						OFFSET 3.09648 1.42991 0.28122
						CHANNELS 3 Zrotation Yrotation Xrotation
						JOINT LeftForeArm
						{
							OFFSET 5.11878 -0.00000 -0.00000
							CHANNELS 3 Zrotation Yrotation Xrotation
							JOINT LeftHand
							{
								OFFSET 3.59971 -0.00000 0.00000
								CHANNELS 3 Zrotation Yrotation Xrotation
								JOINT LeftFingerBase
								{
									OFFSET 0 0 0
									CHANNELS 3 Zrotation Yrotation Xrotation
									JOINT LeftHandIndex1
									{
										OFFSET 0.62877 -0.00000 0.00000
										CHANNELS 3 Zrotation Yrotation Xrotation
										End Site
										{
											OFFSET 0.50693 -0.00000 0.00000
										}
									}
								}
								JOINT LThumb
								{
									OFFSET 0 0 0
									CHANNELS 3 Zrotation Yrotation Xrotation
									End Site
									{
										OFFSET 0.51467 -0.00000 0.51467
									}
								}
							}
						}
					}
				}
				JOINT RightShoulder
				{
					OFFSET 0 0 0
					CHANNELS 3 Zrotation Yrotation Xrotation
					JOINT RightArm
					{
						OFFSET -3.33565 1.14597 0.05047
						CHANNELS 3 Zrotation Yrotation Xrotation
						JOINT RightForeArm
						{
							OFFSET -5.49020 -0.00000 0.00000
							CHANNELS 3 Zrotation Yrotation Xrotation
							JOINT RightHand
							{
								OFFSET -3.20659 -0.00000 -0.00000
								CHANNELS 3 Zrotation Yrotation Xrotation
								JOINT RightFingerBase
								{
									OFFSET 0 0 0
									CHANNELS 3 Zrotation Yrotation Xrotation
									JOINT RightHandIndex1
									{
										OFFSET -0.69188 -0.00000 0.00000
										CHANNELS 3 Zrotation Yrotation Xrotation
										End Site
										{
											OFFSET -0.55781 -0.00000 0.00000
										}
									}
								}
								JOINT RThumb
								{
									OFFSET 0 0 0
									CHANNELS 3 Zrotation Yrotation Xrotation
									End Site
									{
										OFFSET -0.56633 -0.00000 0.56633
									}
								}
							}
						}
					}
				}
			}
		}
	}
}
MOTION
Frames: 10
Frame Time: .0083333
-0.8754 17.6184 7.5021 -5.1549 -3.3584 8.9094 0.0000 0.0000 0.0000 -17.4743 -31.1994 15.7823 0.0099 -0.6433 -1.7677 -3.9031 35.4642 -30.5709 0.0014 0.2420 0.6648 0.0000 0.0000 0.0000 25.8553 23.9018 7.0616 -0.0006 -0.1525 0.4190 0.3577 -15.4021 -17.6371 -0.0927 -1.9640 5.4061 10.9943 3.8402 7.5135 2.5208 7.1812 -9.7909 -4.6202 2.3996 -14.2121 -6.6506 -10.4848 -9.3815 2.1443 -13.7739 17.8536 0.4136 -6.8517 7.6545 0.0000 -0.0000 0.0000 -74.3791 16.1581 -5.3358 118.1268 -56.7888 -84.0959 -0.0000 0.0000 -14.0536 42.2714 -28.6129 -23.5245 -7.1250 0.0000 -0.0000 6.5971 -6.2032 -7.3177 0.0000 -0.0000 0.0000 61.0012 53.8294 39.8305 -35.6666 45.2823 -15.2851 0.0000 0.0000 52.2206 -46.3275 -46.0817 37.0348 7.1250 -0.0000 -0.0000 -33.8333 -85.6470 31.3325
-0.8844 17.6122 7.5075 -5.3162 -3.9674 8.8623 0.0000 0.0000 0.0000 -17.7447 -31.4287 16.4742 0.0112 -0.6841 -1.8801 -4.0372 36.1715 -31.6869 0.0061 0.5042 1.3854 0.0000 0.0000 0.0000 25.9469 23.6199 6.8730 -0.0008 -0.1820 0.5001 0.2897 -14.5856 -17.1398 -0.0857 -1.8885 5.1976 10.7596 3.8242 7.1096 2.6997 7.0605 -9.5964 -4.2324 2.4157 -13.7810 -6.5874 -10.3521 -9.6338 2.0264 -13.5922 18.5294 0.3536 -6.7634 7.9013 0.0000 0.0000 0.0000 -74.6166 15.6853 -5.3427 118.1535 -56.7822 -84.1182 -0.0000 0.0000 -13.8808 42.3015 -28.6462 -23.5689 -7.1250 0.0000 -0.0000 6.6052 -6.2532 -7.3319 0.0000 0.0000 0.0000 65.1650 52.5695 46.1109 -36.6375 45.9466 -15.9789 0.0000 0.0000 52.4895 -47.5027 -45.8245 38.0528 7.1250 -0.0000 -0.0000 -42.3404 -85.5868 39.2809
-0.8944 17.6021 7.5114 -5.5937 -4.3505 8.6747 0.0000 0.0000 0.0000 -17.8352 -31.5020 17.1908 0.0130 -0.7365 -2.0239 -4.1243 36.6457 -32.4641 0.0130 0.7361 2.0230 0.0000 0.0000 0.0000 26.2676 23.2317 6.8368 -0.0013 -0.2308 0.6341 0.2269 -13.8681 -16.8046 -0.0819 -1.8455 5.0788 11.6383 4.0387 6.8328 2.1502 7.3297 -9.3696 -5.3114 2.4709 -13.1295 -6.3482 -10.6080 -10.1287 2.4277 -14.0851 19.3674 0.3347 -6.9258 8.3033 -0.0000 0.0000 0.0000 -73.5657 14.5973 -4.2614 117.8848 -56.8477 -83.8934 -0.0000 0.0000 -13.7583 42.2812 -28.6899 -23.5833 -7.1250 0.0000 -0.0000 6.5827 -6.2954 -7.3109 -0.0000 0.0000 0.0000 68.3222 50.4517 49.8214 -37.5446 46.5459 -16.6342 0.0000 0.0000 52.2463 -47.8524 -46.1623 38.5532 7.1250 -0.0000 -0.0000 -46.8061 -85.9409 43.7723
-0.9054 17.5901 7.5128 -5.8459 -4.4945 8.4383 0.0000 0.0000 0.0000 -17.8719 -31.5583 17.8266 0.0147 -0.7833 -2.1527 -4.1913 36.9560 -32.9043 0.0174 0.8518 2.3413 0.0000 0.0000 0.0000 26.6246 22.8812 6.9042 -0.0020 -0.2912 0.8001 0.1795 -13.3713 -16.6610 -0.0808 -1.8333 5.0451 11.2677 3.8955 7.3580 2.4074 7.2358 -9.6655 -4.8803 2.4126 -13.9089 -6.4522 -10.4888 -9.9638 2.2869 -13.9413 20.3927 0.3012 -6.8732 8.6121 0.0000 0.0000 0.0000 -73.7782 15.0848 -3.8827 118.0635 -56.8043 -84.0429 -0.0000 0.0000 -13.6950 42.2938 -28.6787 -23.5850 -7.1250 0.0000 -0.0000 6.5925 -6.2875 -7.3211 0.0000 0.0000 0.0000 70.8501 47.3398 53.7381 -38.0370 46.8630 -16.9926 0.0000 0.0000 53.2733 -48.3864 -45.3315 38.6823 7.1250 -0.0000 -0.0000 -47.2193 -85.2151 43.6030
-0.9189 17.5815 7.5119 -5.9705 -4.4115 8.2277 0.0000 0.0000 0.0000 -17.8487 -31.5015 18.1426 0.0155 -0.8033 -2.2076 -4.2729 37.0999 -32.7514 0.0101 0.6501 1.7865 0.0000 0.0000 0.0000 26.8785 22.6395 7.0270 -0.0028 -0.3422 0.9402 0.1566 -13.1953 -16.7038 -0.0880 -1.9139 5.2677 10.8432 3.8566 7.3418 2.5555 7.1340 -9.6127 -4.4699 2.4209 -13.9087 -6.6991 -10.5397 -10.1744 2.5778 -14.0652 21.1537 0.3806 -6.9074 8.9590 0.0000 0.0000 0.0000 -73.9082 14.7343 -3.3356 117.9332 -56.8360 -83.9339 -0.0000 0.0000 -13.6219 42.2241 -28.8310 -23.6355 -7.1250 0.0000 -0.0000 6.5146 -6.4342 -7.2483 0.0000 0.0000 0.0000 71.6676 44.5623 55.8533 -38.4012 47.0936 -17.2588 0.0000 0.0000 53.9385 -49.3232 -45.4605 39.6705 7.1250 -0.0000 -0.0000 -55.2950 -85.3737 51.3971
-0.9354 17.5783 7.5121 -6.0177 -4.0967 8.0386 0.0000 0.0000 0.0000 -17.7439 -31.4007 18.2325 0.0157 -0.8101 -2.2266 -4.3078 37.0161 -32.2406 0.0027 0.3342 0.9181 0.0000 0.0000 0.0000 27.0642 22.3637 7.1848 -0.0029 -0.3499 0.9613 0.1595 -13.2882 -16.8126 -0.0919 -1.9557 5.3831 10.8252 3.8877 6.6928 2.3653 6.9993 -9.1565 -4.5705 2.4286 -12.9396 -6.8395 -10.8062 -10.6552 3.1937 -14.5343 21.3243 0.5066 -7.0592 9.1901 -0.0000 -0.0000 0.0000 -73.6004 13.4564 -2.7066 117.5161 -56.9363 -83.5845 -0.0000 0.0000 -13.4416 42.2374 -29.0634 -23.8001 -7.1250 0.0000 -0.0000 6.4617 -6.7050 -7.2155 -0.0000 -0.0000 0.0000 71.5868 42.5173 55.7270 -37.8067 46.7154 -16.8247 0.0000 0.0000 55.6577 -50.2201 -43.0824 39.3657 7.1250 -0.0000 -0.0000 -50.4061 -83.2859 45.0222
-0.9527 17.5775 7.5154 -6.0182 -3.5720 7.9136 0.0000 0.0000 0.0000 -17.6091 -31.4345 18.1999 0.0156 -0.8060 -2.2151 -4.3016 36.8049 -31.6254 0.0002 0.0847 0.2328 0.0000 0.0000 0.0000 27.1940 22.0957 7.3400 -0.0024 -0.3134 0.8612 0.1876 -13.6345 -16.9765 -0.0851 -1.8812 5.1773 10.0576 3.7178 6.9594 2.5800 6.7671 -9.4373 -3.9230 2.3599 -13.5756 -7.0568 -10.8662 -10.4261 3.2371 -14.6390 21.8006 0.5383 -7.1195 9.3418 -0.0000 -0.0000 0.0000 -73.8444 13.9035 -2.2298 117.6168 -56.9123 -83.6689 -0.0000 0.0000 -13.2568 42.2181 -29.1603 -23.8501 -7.1250 0.0000 -0.0000 6.4257 -6.8079 -7.1850 -0.0000 -0.0000 0.0000 71.0456 39.3567 55.8125 -36.8697 46.1020 -16.1460 0.0000 0.0000 56.7784 -50.8597 -44.5389 40.7556 7.1250 -0.0000 -0.0000 -61.4158 -84.5640 56.5187
-0.9641 17.5774 7.5199 -6.0116 -2.7913 7.8982 0.0000 0.0000 0.0000 -17.3680 -31.6150 17.9074 0.0138 -0.7589 -2.0858 -4.2424 36.4151 -30.8425 0.0005 -0.1493 -0.4103 0.0000 0.0000 0.0000 27.3255 21.9998 7.5107 -0.0014 -0.2455 0.6744 0.2399 -14.3303 -17.4014 -0.0871 -1.9032 5.2383 9.6033 3.5914 6.6734 2.6424 6.5058 -9.4425 -3.5453 2.2947 -13.4816 -7.2091 -11.0321 -10.4234 3.5206 -14.9160 21.8421 0.6144 -7.2292 9.4081 0.0000 0.0000 0.0000 -73.8596 13.7393 -1.7197 117.5648 -56.9247 -83.6253 -0.0000 0.0000 -13.0220 42.1176 -29.1580 -23.7739 -7.1250 0.0000 -0.0000 6.3710 -6.7652 -7.1190 0.0000 0.0000 0.0000 69.8466 36.7895 54.3952 -35.4683 45.1436 -15.1444 0.0000 0.0000 57.4091 -51.3219 -44.4872 41.1978 7.1250 -0.0000 -0.0000 -64.3875 -84.4934 59.3013
-0.9690 17.5780 7.5248 -6.0830 -1.7769 7.9263 0.0000 0.0000 0.0000 -16.8713 -31.7640 17.3515 0.0117 -0.6981 -1.9185 -4.1451 35.8083 -29.6508 0.0075 -0.5590 -1.5359 0.0000 0.0000 0.0000 27.5990 22.0759 7.7821 -0.0007 -0.1662 0.4567 0.3135 -15.3248 -18.1038 -0.1077 -2.1163 5.8272 9.4887 3.4641 6.0780 2.6418 6.2194 -9.2559 -3.3873 2.2102 -12.9271 -7.4984 -11.2966 -10.6505 3.9917 -15.3251 21.7676 0.7415 -7.3857 9.5135 -0.0000 -0.0000 0.0000 -73.7273 13.2099 -1.2414 117.4001 -56.9639 -83.4873 -0.0000 0.0000 -12.7994 42.1057 -29.2687 -23.8382 -7.1250 0.0000 -0.0000 6.3356 -6.8866 -7.0907 -0.0000 -0.0000 0.0000 68.2166 34.6342 51.8017 -34.0075 44.0903 -14.1183 0.0000 0.0000 57.4812 -51.7965 -44.4633 41.6692 7.1250 -0.0000 -0.0000 -67.5764 -84.4302 62.3123
-0.9721 17.5783 7.5311 -6.2840 -0.6950 7.9406 0.0000 0.0000 0.0000 -16.0808 -31.6971 16.6352 0.0103 -0.6566 -1.8044 -4.0202 35.0213 -28.0686 0.0346 -1.2001 -3.2995 0.0000 0.0000 0.0000 28.0853 22.2651 8.1637 -0.0002 -0.0878 0.2414 0.4159 -16.4942 -18.8365 -0.1203 -2.2357 6.1576 9.3351 3.2695 5.9780 2.7860 5.9558 -9.3732 -3.1039 2.1006 -13.0668 -7.8769 -11.5342 -10.6027 4.2618 -15.6627 21.8279 0.8372 -7.5424 9.6049 0.0000 -0.0000 0.0000 -73.6211 13.4340 -0.8529 117.3748 -56.9698 -83.4661 -0.0000 0.0000 -12.6132 42.1282 -29.3165 -23.8864 -7.1250 0.0000 -0.0000 6.3355 -6.9499 -7.0967 0.0000 -0.0000 0.0000 66.4621 32.1260 48.8383 -32.6878 43.0887 -13.2083 0.0000 0.0000 57.4466 -52.0745 -44.3831 41.9131 7.1250 -0.0000 -0.0000 -68.9800 -84.3377 63.5790
